<svg width="195" height="80" viewBox="0 0 195 80" fill="none" xmlns="http://www.w3.org/2000/svg">
<g clip-path="url(#clip0_10086_108061)">
<path d="M138.304 73.1894C138.323 73.1827 138.344 73.1827 138.38 73.1827V72.9238H142.143C142.229 72.9238 142.314 73.0101 142.314 73.0101V73.1827L142.143 74.0457C142.143 74.132 142.057 74.2183 142.057 74.2183C142.057 74.3046 141.972 74.3046 141.886 74.3046H139.577L140.261 75.6854C140.261 75.7286 140.283 75.7502 140.304 75.7717C140.326 75.7933 140.347 75.8149 140.347 75.858V76.0306C140.261 76.0306 140.261 76.1169 140.261 76.1169C140.261 76.1169 140.176 76.1169 140.176 76.2032L138.722 77.8429H141.117C141.202 77.8429 141.288 77.9292 141.288 77.9292V78.1018L141.117 78.9648C141.117 79.0511 141.031 79.1374 141.031 79.1374C141.031 79.2237 140.946 79.2237 140.86 79.2237H137.011C136.84 79.2237 136.84 79.1374 136.84 79.0511L137.011 78.447C137.011 78.3607 137.011 78.2744 137.097 78.1881C137.154 78.1881 137.211 78.1114 137.268 78.0347C137.297 77.9964 137.325 77.958 137.354 77.9292L138.807 76.2032L138.038 74.5635C137.952 74.4772 137.952 74.3909 137.952 74.3046V74.0457L138.123 73.4416C138.123 73.405 138.123 73.3839 138.13 73.3651C138.139 73.3397 138.16 73.3187 138.209 73.269C138.258 73.2194 138.279 73.1983 138.304 73.1894Z" fill="url(#paint0_linear_10086_108061)"/>
<path d="M55.0769 73.1828C54.9058 73.1828 54.8203 73.2691 54.8203 73.3554L54.3072 75.5129H52.5966L53.0243 73.3554V73.2691C53.0243 73.2691 52.9387 73.1828 52.8532 73.1828H51.7414C51.5703 73.1828 51.4848 73.2691 51.4848 73.3554L50.1164 79.1375V79.2238H51.3993C51.4848 79.2238 51.5703 79.2238 51.5703 79.1375C51.5703 79.0512 51.6558 79.0512 51.6558 79.0512L52.2545 76.7211H53.965L53.3664 79.0512V79.1375H54.6493C54.7348 79.1375 54.8203 79.1375 54.8203 79.0512L54.9058 78.9649L56.2743 73.1828V73.0965C56.2743 73.0965 56.1887 73.0102 56.1032 73.0102H55.0769V73.1828Z" fill="url(#paint1_linear_10086_108061)"/>
<path d="M35.0639 73.1827C34.8928 73.1827 34.8073 73.269 34.8073 73.3553L34.2942 75.5128H32.5836L33.0968 73.3553V73.269C33.0968 73.269 33.0113 73.1827 32.9257 73.1827H31.8139C31.6428 73.1827 31.5573 73.269 31.5573 73.3553L30.1889 79.1374V79.2237H31.4718C31.5573 79.2237 31.6428 79.2237 31.6428 79.1374C31.6428 79.0511 31.7284 79.0511 31.7284 79.0511L32.3271 76.721H34.0376L33.3534 79.1374V79.2237H34.6363C34.7218 79.2237 34.8073 79.2237 34.8073 79.1374L34.8928 79.0511L36.2613 73.269V73.1827C36.2613 73.1827 36.1757 73.0964 36.0902 73.0964H35.0639V73.1827Z" fill="url(#paint2_linear_10086_108061)"/>
<path d="M15.8203 73.1828C15.7348 73.1828 15.6493 73.1828 15.6493 73.2691C15.6493 73.2691 15.5637 73.3554 15.5637 73.4417L14.1953 79.1375V79.3101C14.1953 79.3101 14.2808 79.3964 14.3664 79.3964H17.9585C18.044 79.3964 18.1295 79.3964 18.1295 79.3101C18.1295 79.3101 18.215 79.2238 18.215 79.1375L18.3861 78.2745C18.3861 78.1882 18.3861 78.145 18.3647 78.1234C18.3433 78.1019 18.3006 78.1019 18.215 78.1019H15.8203L16.1624 76.8074H18.215C18.3006 76.8074 18.3861 76.8074 18.3861 76.7211C18.3861 76.7211 18.4716 76.6348 18.4716 76.5485L18.6427 75.6855C18.6427 75.5992 18.6427 75.556 18.6213 75.5344C18.5999 75.5129 18.5572 75.5129 18.4716 75.5129H16.419L16.6756 74.4773H18.9848C19.0703 74.4773 19.1558 74.4773 19.1558 74.391C19.1558 74.391 19.2414 74.3047 19.2414 74.2184L19.4124 73.3554C19.4124 73.2691 19.4124 73.2259 19.391 73.2043C19.3697 73.1828 19.3269 73.1828 19.2414 73.1828H15.8203Z" fill="url(#paint3_linear_10086_108061)"/>
<path d="M22.2355 73.1828C22.0644 73.1828 21.9789 73.1828 21.9789 73.2691L21.8078 73.4417L18.7289 79.1375V79.2238C18.7289 79.2669 18.7289 79.2885 18.7396 79.2993C18.7503 79.3101 18.7716 79.3101 18.8144 79.3101H19.6697C19.7552 79.3101 19.8407 79.3101 19.8407 79.2238C19.8936 79.2238 19.9138 79.1908 19.9417 79.1452C19.9589 79.1171 19.9791 79.0841 20.0118 79.0512C20.0118 79.0512 20.0973 78.8786 20.1828 78.7923C20.2683 78.6197 20.3539 78.4471 20.5249 78.2745C20.5508 78.2222 20.5846 78.162 20.6214 78.0964C20.7062 77.9451 20.8074 77.7646 20.867 77.5841C20.9267 77.4035 21.0279 77.223 21.1127 77.0718C21.1495 77.0061 21.1832 76.9459 21.2091 76.8937C21.2628 76.7311 21.3502 76.6026 21.429 76.4868C21.4757 76.4181 21.5194 76.3538 21.5512 76.2896C21.5839 76.2236 21.6166 76.1703 21.6445 76.1248C21.6896 76.051 21.7223 75.9977 21.7223 75.9444C21.776 75.7818 21.8634 75.6533 21.9421 75.5375C21.9889 75.4688 22.0326 75.4045 22.0644 75.3403C22.1499 75.1677 22.2355 74.9951 22.321 74.7362H22.4065V75.9444C22.4065 76.4622 22.4065 76.98 22.492 77.4978C22.492 77.7567 22.5134 78.0156 22.5348 78.2745C22.5562 78.5334 22.5776 78.7923 22.5776 79.0512C22.5776 79.1375 22.5776 79.2238 22.6631 79.2238C22.6631 79.2238 22.7486 79.3101 22.8341 79.3101H23.946C24.0315 79.3101 24.117 79.3101 24.117 79.2238V79.1375L23.6039 73.4417C23.6039 73.3554 23.6039 73.2691 23.5183 73.2691C23.5183 73.1828 23.4328 73.1828 23.2618 73.1828H22.2355Z" fill="url(#paint4_linear_10086_108061)"/>
<path d="M27.5376 73.2691C27.5376 73.1828 27.6231 73.1828 27.7942 73.1828H28.906C29.0771 73.1828 29.1626 73.1828 29.1626 73.2691C29.2481 73.2691 29.2481 73.3554 29.2481 73.4417L29.7613 79.1375V79.2238C29.7613 79.3101 29.6757 79.3101 29.5902 79.3101H28.4784C28.3928 79.3101 28.3073 79.2238 28.3073 79.2238C28.2218 79.2238 28.2218 79.1375 28.2218 79.0512C28.2218 78.7923 28.2004 78.5334 28.179 78.2745C28.1576 78.0156 28.1363 77.7567 28.1363 77.4978C28.0507 76.98 28.0507 76.4622 28.0507 75.9444V74.7362H27.9652C27.8797 74.9951 27.7942 75.1677 27.7086 75.3403C27.6768 75.4045 27.6331 75.4688 27.5864 75.5375C27.5076 75.6533 27.4202 75.7818 27.3665 75.9444C27.3665 75.9977 27.3339 76.051 27.2887 76.1248C27.2608 76.1703 27.2281 76.2236 27.1955 76.2896C27.1636 76.3538 27.1199 76.4181 27.0732 76.4868C26.9944 76.6026 26.9071 76.7311 26.8534 76.8937C26.8275 76.9459 26.7937 77.0061 26.7569 77.0718C26.6721 77.223 26.5709 77.4035 26.5113 77.5841C26.4516 77.7646 26.3504 77.9451 26.2656 78.0964C26.2288 78.162 26.1951 78.2222 26.1692 78.2745C25.9981 78.4471 25.9126 78.6197 25.8271 78.7923C25.7415 78.8786 25.656 79.0512 25.656 79.0512C25.6233 79.0841 25.6031 79.1171 25.5859 79.1452C25.558 79.1908 25.5378 79.2238 25.485 79.2238C25.485 79.3101 25.3994 79.3101 25.3139 79.3101H24.2876C24.2448 79.3101 24.2234 79.3101 24.2127 79.2993C24.2021 79.2885 24.2021 79.2669 24.2021 79.2238V79.1375L27.281 73.4417C27.3238 73.3985 27.3665 73.3769 27.4093 73.3554C27.4521 73.3338 27.4948 73.3122 27.5376 73.2691Z" fill="url(#paint5_linear_10086_108061)"/>
<path d="M40.8795 73.269C40.8795 73.1827 40.965 73.1827 41.0506 73.1827V73.0964H42.0769C42.1624 73.0964 42.2479 73.1827 42.2479 73.269V73.3553C42.1197 73.8299 42.0128 74.3045 41.9059 74.7791C41.799 75.2538 41.692 75.7286 41.5637 76.2032C41.4354 76.6778 41.3285 77.1525 41.2216 77.6271C41.1147 78.1018 41.0078 78.5764 40.8795 79.0511C40.8795 79.1374 40.794 79.2237 40.794 79.2237C40.794 79.31 40.7085 79.31 40.6229 79.31H39.8532C39.753 79.31 39.7115 79.2804 39.6771 79.2558C39.6528 79.2385 39.6321 79.2237 39.5966 79.2237C39.5966 79.1805 39.5752 79.159 39.5539 79.1374C39.5325 79.1158 39.5111 79.0942 39.5111 79.0511L38.7414 76.8936L38.3137 75.6854L37.4585 79.0511C37.4585 79.1374 37.3729 79.2237 37.3729 79.2237C37.3729 79.31 37.2874 79.31 37.2019 79.31H36.1756C36.09 79.31 36.0045 79.2237 36.0045 79.1374L37.3729 73.4416C37.3729 73.3553 37.4585 73.269 37.4585 73.269C37.4585 73.1827 37.544 73.1827 37.6295 73.1827H38.3993C38.5703 73.1827 38.6558 73.1827 38.6558 73.269C38.6558 73.269 38.7414 73.3553 38.7414 73.4416L39.9387 76.721C40.0243 76.4621 40.0884 76.1817 40.1525 75.9012C40.2167 75.6208 40.2808 75.3402 40.3664 75.0813C40.4519 74.8224 40.516 74.542 40.5802 74.2615C40.6443 73.9811 40.7085 73.7004 40.794 73.4416C40.794 73.3984 40.8154 73.3769 40.8368 73.3553C40.8581 73.3337 40.8795 73.3121 40.8795 73.269Z" fill="url(#paint6_linear_10086_108061)"/>
<path d="M43.7024 73.1828C43.6169 73.1828 43.5313 73.1828 43.5313 73.2691C43.5313 73.2691 43.4458 73.3554 43.4458 73.4417L42.0774 79.1375V79.3101C42.0774 79.3101 42.1629 79.3964 42.2484 79.3964H43.3603C43.4458 79.3964 43.5313 79.3964 43.5313 79.3101C43.5313 79.2669 43.5527 79.2453 43.5741 79.2238C43.5955 79.2022 43.6169 79.1806 43.6169 79.1375L44.9853 73.4417V73.2691C44.9853 73.1828 44.8998 73.1828 44.8142 73.1828H43.7024Z" fill="url(#paint7_linear_10086_108061)"/>
<path d="M49.2616 73.2691C49.3471 73.1828 49.4327 73.1828 49.5182 73.1828V73.2691H51.0577C51.1432 73.2691 51.2287 73.2691 51.2287 73.3554C51.2287 73.3554 51.2287 73.4417 51.1432 73.528L48.5774 75.9444L49.7748 79.0512C49.8603 79.2238 49.7748 79.3101 49.7748 79.3101C49.6892 79.3964 49.6892 79.3964 49.6037 79.3964H48.4919C48.3935 79.3964 48.3517 79.3964 48.3177 79.38C48.2925 79.3678 48.2716 79.3467 48.2353 79.3101C48.2353 79.2669 48.2139 79.2453 48.1925 79.2238C48.1711 79.2022 48.1498 79.1806 48.1498 79.1375L47.38 77.0663L46.5248 77.843L46.1827 79.1375C46.1827 79.1806 46.1613 79.2022 46.1399 79.2238C46.1185 79.2453 46.0971 79.2669 46.0971 79.3101C46.0971 79.3964 46.0116 79.3964 45.9261 79.3964H44.8142C44.7287 79.3964 44.6432 79.3101 44.6432 79.3101V79.1375L46.0116 73.4417C46.0116 73.3554 46.0971 73.2691 46.0971 73.2691C46.0971 73.1828 46.1827 73.1828 46.2682 73.1828H47.38C47.4655 73.1828 47.5511 73.1828 47.5511 73.2691V73.4417L47.0379 75.5129L49.0905 73.4417C49.1232 73.4087 49.1434 73.3757 49.1607 73.3476C49.1886 73.302 49.2087 73.2691 49.2616 73.2691Z" fill="url(#paint8_linear_10086_108061)"/>
<path d="M60.7218 73.2691C60.7218 73.1828 60.8073 73.1828 60.8928 73.1828H64.3994C64.485 73.1828 64.5277 73.1828 64.5491 73.2043C64.5705 73.2259 64.5705 73.2691 64.5705 73.3554L64.3994 74.2184C64.3994 74.3047 64.3139 74.391 64.3139 74.391C64.3139 74.4773 64.2284 74.4773 64.1428 74.4773H61.8336L61.5771 75.5129H63.5442C63.6297 75.5129 63.6724 75.5129 63.6938 75.5344C63.7152 75.556 63.7152 75.5992 63.7152 75.6855L63.5442 76.5485C63.5442 76.6348 63.4586 76.7211 63.4586 76.7211C63.4586 76.8074 63.3731 76.8074 63.2876 76.8074H61.3205L60.9784 78.1019H63.3731C63.5442 78.1019 63.5442 78.1019 63.5442 78.2745L63.3731 79.1375C63.3731 79.2238 63.2876 79.3101 63.2876 79.3101C63.2876 79.3964 63.2021 79.3964 63.1165 79.3964H59.4389C59.3534 79.3964 59.2678 79.3101 59.2678 79.3101V79.1375L60.6363 73.4417C60.6363 73.3554 60.7218 73.2691 60.7218 73.2691Z" fill="url(#paint9_linear_10086_108061)"/>
<path d="M65.3407 73.1828C65.2552 73.1828 65.1697 73.1828 65.1697 73.2691C65.1697 73.2691 65.0841 73.3554 65.0841 73.4417L64.9131 74.3047V74.4773C64.9131 74.4773 64.9986 74.5636 65.0841 74.5636H66.367L65.2552 79.2238V79.3964C65.2552 79.4827 65.3407 79.4827 65.4262 79.4827H66.5381C66.6236 79.4827 66.7091 79.4827 66.7091 79.3964C66.7091 79.3532 66.7305 79.3316 66.7519 79.3101C66.7733 79.2885 66.7947 79.2669 66.7947 79.2238L67.9065 74.5636H69.1894C69.2749 74.5636 69.3605 74.5636 69.3605 74.4773C69.3605 74.4773 69.446 74.391 69.446 74.3047L69.617 73.4417C69.617 73.2691 69.617 73.2691 69.446 73.2691H65.3407V73.1828Z" fill="url(#paint10_linear_10086_108061)"/>
<path fill-rule="evenodd" clip-rule="evenodd" d="M71.4124 73.2691C71.4979 73.1828 71.5835 73.1828 71.669 73.1828H72.6953C72.8664 73.1828 72.9519 73.1828 72.9519 73.2691C73.0374 73.2691 73.0374 73.3554 73.0374 73.4417L73.465 79.0512V79.2238C73.3795 79.3101 73.3795 79.3101 73.294 79.3101H72.1822C72.0966 79.3101 72.0111 79.3101 72.0111 79.2238C71.9256 79.1375 71.9256 79.0512 71.9256 78.9649V77.843H70.1295L69.5308 78.9649C69.4982 78.9978 69.478 79.0308 69.4607 79.0589C69.4328 79.1045 69.4126 79.1375 69.3598 79.1375C69.3598 79.2238 69.2743 79.2238 69.1887 79.2238H68.0769C68.0769 79.2238 68.0769 79.1375 68.1624 79.0512L71.2414 73.4417L71.4124 73.2691ZM71.9256 74.6499L71.3269 75.7718L70.8137 76.8074H72.0111V74.6499H71.9256Z" fill="url(#paint11_linear_10086_108061)"/>
<path d="M75.7748 73.1828C75.6892 73.1828 75.6037 73.1828 75.6037 73.2691C75.6037 73.2691 75.5182 73.3554 75.5182 73.4417L74.1498 79.1375V79.3101C74.1498 79.3101 74.2353 79.3964 74.3208 79.3964H75.4327C75.5182 79.3964 75.6037 79.3964 75.6037 79.3101C75.6037 79.2669 75.6251 79.2453 75.6465 79.2238C75.6679 79.2022 75.6892 79.1806 75.6892 79.1375L77.0577 73.4417V73.2691C77.0577 73.1828 76.9721 73.1828 76.8866 73.1828H75.7748Z" fill="url(#paint12_linear_10086_108061)"/>
<path fill-rule="evenodd" clip-rule="evenodd" d="M78.1692 73.4416C78.1692 73.3553 78.2547 73.269 78.2547 73.269C78.2547 73.1827 78.3402 73.1827 78.5113 73.269H80.5639C80.8205 73.269 80.9915 73.269 81.2481 73.3553C81.4191 73.4416 81.5902 73.5279 81.7613 73.7005C81.9323 73.8731 82.0178 74.0457 82.1034 74.2183C82.1889 74.3909 82.1889 74.6498 82.1889 74.9087C82.1889 75.1676 82.1034 75.4265 82.0178 75.6854C81.9323 75.9443 81.7613 76.2032 81.5902 76.3758C81.4192 76.6347 81.1626 76.8073 80.8205 76.8936C80.4784 76.9799 80.1363 77.0662 79.7086 77.0662H78.8534L78.3402 79.1374C78.3402 79.1805 78.3188 79.2021 78.2974 79.2237C78.2761 79.2453 78.2547 79.2668 78.2547 79.31C78.2547 79.3963 78.1692 79.3963 78.0836 79.3963H76.9718C76.8863 79.3963 76.8007 79.31 76.8007 79.31V79.1374L78.1692 73.4416ZM79.9652 74.4772H79.3665L79.0244 75.858H79.7086C79.7514 75.858 79.8155 75.8364 79.8797 75.8148C79.9438 75.7933 80.008 75.7717 80.0507 75.7717C80.0935 75.7285 80.1363 75.707 80.179 75.6854C80.2218 75.6638 80.2645 75.6422 80.3073 75.5991C80.3501 75.5559 80.3715 75.5128 80.3928 75.4696C80.4142 75.4265 80.4356 75.3833 80.4784 75.3402C80.5639 75.2539 80.5639 75.1676 80.5639 74.995C80.5639 74.8224 80.4784 74.6498 80.3928 74.5635C80.3073 74.4772 80.1363 74.4772 79.9652 74.4772Z" fill="url(#paint13_linear_10086_108061)"/>
<path d="M83.4721 73.1828C83.3866 73.1828 83.3011 73.1828 83.3011 73.2691C83.3011 73.2691 83.2156 73.3554 83.2156 73.4417L81.8471 79.1375V79.3101C81.8471 79.3101 81.9327 79.3964 82.0182 79.3964H85.6958C85.7813 79.3964 85.8669 79.3964 85.8669 79.3101C85.8669 79.3101 85.9524 79.2238 85.9524 79.1375L86.1234 78.2745C86.1234 78.1882 86.1234 78.145 86.1021 78.1234C86.0807 78.1019 86.0379 78.1019 85.9524 78.1019H83.5577L83.8998 76.8074H85.9524C86.0379 76.8074 86.1234 76.8074 86.1234 76.7211C86.1234 76.7211 86.209 76.6348 86.209 76.5485L86.38 75.6855C86.38 75.5992 86.38 75.556 86.3586 75.5344C86.3373 75.5129 86.2945 75.5129 86.209 75.5129H84.1563L84.4129 74.4773H86.7221C86.8077 74.4773 86.8932 74.4773 86.8932 74.391C86.8932 74.391 86.9787 74.3047 86.9787 74.2184L87.1498 73.3554C87.1498 73.1828 87.1498 73.1828 86.9787 73.1828H83.4721Z" fill="url(#paint14_linear_10086_108061)"/>
<path d="M88.3466 73.2691C88.3466 73.1828 88.4322 73.1828 88.5177 73.1828H89.6295C89.715 73.1828 89.8006 73.1828 89.8006 73.2691V73.4417L88.4322 79.1375C88.4322 79.1806 88.4108 79.2022 88.3894 79.2238C88.368 79.2453 88.3466 79.2669 88.3466 79.3101C88.3466 79.3964 88.2611 79.3964 88.1756 79.3964H87.0637C86.9782 79.3964 86.8927 79.3101 86.8927 79.3101V79.1375L88.2611 73.4417C88.2611 73.3554 88.3466 73.2691 88.3466 73.2691Z" fill="url(#paint15_linear_10086_108061)"/>
<path fill-rule="evenodd" clip-rule="evenodd" d="M92.5377 73.1828C92.4522 73.1828 92.3667 73.1828 92.2812 73.2691L92.1101 73.4417L89.0312 79.0512C88.9456 79.1375 88.9456 79.2238 88.9456 79.2238H90.0575C90.143 79.2238 90.2285 79.2238 90.2285 79.1375C90.2814 79.1375 90.3016 79.1045 90.3295 79.0589C90.3467 79.0308 90.3669 78.9978 90.3996 78.9649L90.9983 77.843H92.7943V78.9649C92.7943 79.0512 92.7943 79.1375 92.8799 79.2238C92.8799 79.3101 92.9654 79.3101 93.0509 79.3101H94.1628C94.2483 79.3101 94.2483 79.3101 94.3338 79.2238V79.0512L93.9062 73.4417C93.9062 73.3554 93.9062 73.2691 93.8206 73.2691C93.8206 73.1828 93.7351 73.1828 93.5641 73.1828H92.5377ZM92.1956 75.7718L92.7943 74.6499H92.8799V76.8074H91.6825L92.1956 75.7718Z" fill="url(#paint16_linear_10086_108061)"/>
<path d="M99.6363 73.2691C99.6363 73.1828 99.7218 73.1828 99.8073 73.1828H103.314C103.399 73.1828 103.442 73.1828 103.464 73.2043C103.485 73.2259 103.485 73.2691 103.485 73.3554L103.314 74.2184C103.314 74.3047 103.228 74.391 103.228 74.391C103.228 74.4773 103.143 74.4773 103.057 74.4773H100.748L100.492 75.5129H102.544C102.63 75.5129 102.672 75.5129 102.694 75.5344C102.715 75.556 102.715 75.5992 102.715 75.6855L102.544 76.5485C102.544 76.6348 102.459 76.7211 102.459 76.7211C102.459 76.8074 102.373 76.8074 102.288 76.8074H100.235L99.8928 78.1019H102.288C102.459 78.1019 102.459 78.1019 102.459 78.2745L102.288 79.1375C102.288 79.2238 102.202 79.3101 102.202 79.3101C102.202 79.3964 102.117 79.3964 102.031 79.3964H98.3534C98.2678 79.3964 98.1823 79.3101 98.1823 79.3101V79.1375L99.5507 73.4417C99.5507 73.3554 99.6363 73.2691 99.6363 73.2691Z" fill="url(#paint17_linear_10086_108061)"/>
<path d="M108.189 73.1827C108.103 73.1827 108.018 73.1827 108.018 73.269C108.018 73.3121 107.996 73.3337 107.975 73.3553C107.954 73.3769 107.932 73.3984 107.932 73.4416C107.847 73.7004 107.783 73.9808 107.718 74.2612C107.654 74.5416 107.59 74.8224 107.505 75.0813C107.419 75.3401 107.355 75.6205 107.291 75.9009C107.227 76.1813 107.162 76.4622 107.077 76.721L105.88 73.4416C105.88 73.3553 105.794 73.269 105.794 73.269C105.794 73.1827 105.708 73.1827 105.537 73.1827H104.768C104.682 73.1827 104.597 73.1827 104.597 73.269C104.597 73.269 104.511 73.3553 104.511 73.4416L103.143 79.1374C103.143 79.2237 103.228 79.31 103.314 79.31H104.34C104.426 79.31 104.511 79.31 104.511 79.2237C104.511 79.2237 104.597 79.1374 104.597 79.0511L105.452 75.6854L105.88 76.8936L106.649 79.0511C106.649 79.0942 106.671 79.1158 106.692 79.1374C106.713 79.159 106.735 79.1805 106.735 79.2237C106.77 79.2237 106.791 79.2385 106.815 79.2558C106.85 79.2804 106.891 79.31 106.991 79.31H107.761C107.847 79.31 107.932 79.31 107.932 79.2237C107.932 79.2237 108.018 79.1374 108.018 79.0511C108.146 78.5764 108.253 78.1018 108.36 77.6271C108.467 77.1526 108.574 76.6777 108.702 76.2032C108.83 75.7288 108.937 75.2543 109.044 74.7799L109.044 74.779C109.151 74.3046 109.258 73.8297 109.386 73.3553V73.269C109.386 73.1827 109.301 73.0964 109.215 73.0964H108.189V73.1827Z" fill="url(#paint18_linear_10086_108061)"/>
<path d="M110.583 73.2691C110.583 73.1828 110.669 73.1828 110.755 73.1828H114.261C114.347 73.1828 114.389 73.1828 114.411 73.2043C114.432 73.2259 114.432 73.2691 114.432 73.3554L114.261 74.2184C114.261 74.3047 114.176 74.391 114.176 74.391C114.176 74.4773 114.09 74.4773 114.005 74.4773H111.695L111.439 75.5129H113.491C113.577 75.5129 113.62 75.5129 113.641 75.5344C113.662 75.556 113.662 75.5991 113.662 75.6853L113.491 76.5485C113.491 76.6348 113.406 76.7211 113.406 76.7211C113.406 76.8074 113.32 76.8074 113.235 76.8074H111.182L110.84 78.1019H113.235C113.32 78.1019 113.363 78.1019 113.384 78.1234C113.406 78.145 113.406 78.1882 113.406 78.2745L113.235 79.1375C113.235 79.2238 113.149 79.3101 113.149 79.3101C113.149 79.3964 113.064 79.3964 112.978 79.3964H109.301C109.215 79.3964 109.13 79.3101 109.13 79.3101V79.1375L110.498 73.4417C110.498 73.3554 110.583 73.2691 110.583 73.2691Z" fill="url(#paint19_linear_10086_108061)"/>
<path fill-rule="evenodd" clip-rule="evenodd" d="M115.545 73.269C115.545 73.269 115.459 73.3553 115.459 73.4416L114.091 79.1374V79.31C114.091 79.31 114.176 79.3963 114.262 79.3963H115.374C115.459 79.3963 115.545 79.3963 115.545 79.31C115.545 79.2668 115.566 79.2453 115.587 79.2237C115.609 79.2021 115.63 79.1805 115.63 79.1374L116.143 77.0662H116.999C117.426 77.0662 117.768 76.9799 118.11 76.8936C118.453 76.8073 118.709 76.6347 118.88 76.3758C119.051 76.2032 119.222 75.9443 119.308 75.6854C119.393 75.4265 119.479 75.1676 119.479 74.9087C119.479 74.6498 119.479 74.3909 119.393 74.2183C119.308 74.0457 119.222 73.8731 119.051 73.7005C118.88 73.5279 118.709 73.4416 118.538 73.3553C118.282 73.269 118.11 73.269 117.854 73.269H115.801C115.63 73.1827 115.545 73.1827 115.545 73.269ZM116.657 74.4772H117.255C117.426 74.4772 117.597 74.4772 117.683 74.5635C117.768 74.6498 117.854 74.8224 117.854 74.995C117.854 75.1676 117.854 75.2539 117.768 75.3402C117.726 75.3833 117.704 75.4265 117.683 75.4696C117.661 75.5128 117.64 75.5559 117.597 75.5991C117.555 75.6422 117.512 75.6638 117.469 75.6854C117.426 75.707 117.383 75.7285 117.341 75.7717C117.298 75.7717 117.234 75.7933 117.17 75.8148C117.106 75.8364 117.041 75.858 116.999 75.858H116.314L116.657 74.4772Z" fill="url(#paint20_linear_10086_108061)"/>
<path d="M120.59 73.2691C120.59 73.1828 120.676 73.1828 120.761 73.1828H124.353C124.524 73.1828 124.524 73.1828 124.524 73.3554L124.353 74.2184C124.353 74.3047 124.268 74.391 124.268 74.391C124.268 74.4773 124.182 74.4773 124.097 74.4773H121.788L120.676 79.1375C120.676 79.1806 120.654 79.2022 120.633 79.2238C120.612 79.2453 120.59 79.2669 120.59 79.3101C120.59 79.3964 120.505 79.3964 120.419 79.3964H119.307C119.222 79.3964 119.136 79.3101 119.136 79.3101V79.1375L120.505 73.4417C120.505 73.3554 120.59 73.2691 120.59 73.2691Z" fill="url(#paint21_linear_10086_108061)"/>
<path d="M125.465 73.1828C125.38 73.1828 125.294 73.1828 125.294 73.2691C125.294 73.2691 125.209 73.3554 125.209 73.4417L123.84 79.1375V79.3101C123.84 79.3101 123.926 79.3964 124.011 79.3964H127.689C127.774 79.3964 127.86 79.3964 127.86 79.3101C127.86 79.3101 127.945 79.2238 127.945 79.1375L128.117 78.2745C128.117 78.1882 128.117 78.145 128.095 78.1234C128.074 78.1019 128.031 78.1019 127.945 78.1019H125.551L125.893 76.8074H127.945C128.031 76.8074 128.117 76.8074 128.117 76.7211C128.117 76.7211 128.202 76.6348 128.202 76.5485L128.373 75.6855C128.373 75.5129 128.373 75.5129 128.202 75.5129H126.149L126.406 74.4773H128.715C128.801 74.4773 128.886 74.4773 128.886 74.391C128.886 74.391 128.972 74.3047 128.972 74.2184L129.143 73.3554C129.143 73.2691 129.143 73.2259 129.121 73.2043C129.1 73.1828 129.057 73.1828 128.972 73.1828H125.465Z" fill="url(#paint22_linear_10086_108061)"/>
<path d="M130.341 73.2691C130.341 73.1828 130.426 73.1828 130.512 73.1828H131.623C131.709 73.1828 131.795 73.1828 131.795 73.2691V73.4417L130.426 79.1375C130.426 79.1806 130.405 79.2022 130.383 79.2238C130.362 79.2453 130.341 79.2669 130.341 79.3101C130.341 79.3964 130.255 79.3964 130.169 79.3964H129.058C128.972 79.3964 128.887 79.3101 128.887 79.3101V79.1375L130.255 73.4417C130.255 73.3554 130.341 73.2691 130.341 73.2691Z" fill="url(#paint23_linear_10086_108061)"/>
<path fill-rule="evenodd" clip-rule="evenodd" d="M134.531 73.1828C134.445 73.1828 134.36 73.1828 134.274 73.2691L134.103 73.4417L131.024 79.0512C130.939 79.1375 130.939 79.2238 130.939 79.2238H132.051C132.136 79.2238 132.222 79.2238 132.222 79.1375C132.274 79.1375 132.295 79.1045 132.323 79.0589C132.34 79.0308 132.36 78.9978 132.393 78.9649L132.991 77.843H134.787V78.9649C134.787 79.0512 134.787 79.1375 134.873 79.2238C134.873 79.3101 134.958 79.3101 135.044 79.3101H136.156C136.192 79.3101 136.213 79.3101 136.232 79.3034C136.257 79.2945 136.278 79.2734 136.327 79.2238L136.327 79.0512L135.899 73.4417C135.899 73.3554 135.899 73.2691 135.814 73.2691C135.814 73.1828 135.728 73.1828 135.557 73.1828H134.531ZM134.189 75.7718L134.787 74.6499H134.873V76.8074H133.676L134.189 75.7718Z" fill="url(#paint24_linear_10086_108061)"/>
<path d="M63.6306 56.526L60.0385 69.6436H65.7687L69.2753 56.4397L63.6306 56.526ZM170.624 56.4397L166.861 69.5573H172.591L176.269 56.4397H170.624ZM50.0319 67.3998C48.4069 67.3998 47.4661 65.5875 48.2358 62.7396C49.0056 59.8054 50.545 59.115 51.8279 59.115C53.1964 59.115 54.2227 60.2369 53.7095 63.1711C53.1108 65.9327 51.6569 67.3998 50.0319 67.3998ZM41.7358 64.6382C41.7358 68.5217 44.2161 69.9888 48.0648 69.9888C53.2819 70.0751 59.9529 67.9176 60.0385 61.2725C60.0385 59.7191 58.8411 59.115 58.8411 59.115L61.5779 59.3739L62.2622 56.4397C62.2622 56.4397 57.1306 56.4397 52.6832 56.4397H52.5977C46.8674 56.4397 41.7358 60.1506 41.7358 64.6382ZM71.2424 56.526L67.8214 69.7299L73.295 69.8162L76.8016 56.526H71.2424ZM75.4332 62.6533L78.4266 69.5573L85.0122 69.6436L80.9924 61.7903L88.4332 56.526L82.7885 56.4397L75.4332 62.6533ZM23.6043 64.9834C22.749 68.6943 25.7424 70.0751 29.6766 70.0751C37.9727 70.1614 39.3411 65.2423 39.3411 65.2423L41.5648 56.4397L36.0911 56.3534C36.0911 56.3534 33.9529 64.5519 33.7819 65.3286C33.6108 66.1916 32.7556 67.3998 30.874 67.3998C28.9924 67.3998 28.9924 65.8464 28.9924 65.8464L31.4727 56.3534L25.7424 56.2671C25.7424 56.3534 24.4595 61.2725 23.6043 64.9834ZM120.249 64.293C120.249 60.3232 123.071 58.5109 124.183 58.5109C125.295 58.5109 126.407 59.2013 126.407 59.2013L124.782 65.5012C124.012 66.1053 123.242 66.3642 122.473 66.3642C121.275 66.4505 120.249 65.5875 120.249 64.293ZM113.749 66.1916C113.749 67.6587 115.032 70.0751 117.854 70.1614C120.335 70.1614 122.644 68.8669 123.927 68.0039L123.499 69.7299H129.144L132.308 57.2164C132.308 57.2164 128.887 56.1808 124.611 56.1808C124.611 56.1808 124.611 56.1808 124.525 56.1808C121.532 56.0945 113.835 59.5465 113.749 66.1916ZM154.631 66.1916C154.973 64.8971 155.229 63.7752 155.4 63.0848C156.085 60.1506 157.624 59.6328 159.163 59.6328C160.617 59.6328 161.387 61.704 160.874 63.43C160.104 66.019 158.821 66.7957 157.367 66.7957C156.427 66.7094 155.486 66.4505 154.631 66.1916ZM149.927 62.7396L145.394 79.568H150.953C150.953 79.568 152.749 73.5271 153.69 69.5573C163.696 71.3696 167.117 64.0341 167.032 60.4958C166.946 57.9068 163.782 56.0945 160.361 56.0945C160.275 56.0945 160.275 56.0945 160.19 56.0945C151.723 56.0945 149.927 62.7396 149.927 62.7396ZM134.617 60.1506C134.617 62.1355 136.927 62.3081 136.927 62.3081V62.567C136.927 62.567 131.966 63.3437 131.966 66.882C131.966 70.0751 137.782 69.9025 140.519 69.9025C143.256 69.9025 146.249 69.1258 146.249 69.1258L147.446 66.1916L146.42 65.4149C146.42 65.4149 143.769 67.2272 140.433 67.2272C139.407 67.2272 138.466 66.7957 138.466 65.9327C138.466 64.9834 140.433 63.5163 144.966 64.0341C145.223 63.0848 145.479 61.0999 145.479 61.0999C145.479 61.0999 140.946 61.5314 140.946 59.8917C140.946 58.252 144.624 57.9931 147.361 60.0643L148.815 59.4602L149.242 56.9575C149.242 56.9575 147.104 56.0082 142.486 55.9219C142.4 55.9219 142.4 55.9219 142.315 55.9219C137.782 56.0082 134.617 58.1657 134.617 60.1506ZM93.9069 67.3998C92.3674 67.3135 91.4266 65.5012 92.1964 62.4807C92.9661 59.4602 94.5056 58.6835 95.7029 58.6835C97.0714 58.6835 98.0121 59.8917 97.499 62.9122C96.9858 65.9327 95.5319 67.3998 93.9069 67.3998ZM85.3543 65.156C85.3543 68.5217 88.5187 69.9025 92.2819 69.9888C100.407 70.0751 103.913 65.4149 103.913 61.9629C103.913 60.6684 103.828 60.0643 103.828 60.0643C103.828 60.0643 103.144 56.6123 98.7819 56.1808C98.0977 56.0945 97.3279 56.0945 97.3279 56.0945H97.2424C92.3674 56.0082 85.4398 58.8561 85.3543 65.156ZM184.565 67.4861C182.17 67.3998 182.341 65.156 182.341 64.3793C182.427 62.0492 183.624 58.6835 186.104 58.7698C188.585 58.8561 188.157 61.2725 188.157 62.2218C188.071 63.1711 186.96 67.4861 184.565 67.4861ZM176.098 65.0697C176.098 67.3135 177.21 70.1614 183.966 69.9888C189.098 69.8162 194.657 66.882 194.657 61.0136C194.657 58.5972 192.861 56.0945 187.216 56.0945H187.131C182.17 56.0082 176.183 59.2876 176.098 65.0697ZM12.9135 67.2272L14.624 60.3232C14.624 60.3232 14.9661 58.5109 16.1635 58.5109C17.2753 58.5109 17.1043 59.978 17.1043 59.978C17.1043 59.978 16.5056 62.7396 15.9069 64.8108C15.3082 66.882 13.7687 67.2272 13.7687 67.2272C13.7687 67.2272 13.3411 67.2272 12.9135 67.2272ZM8.97925 60.7547L7.26873 67.1409C5.47268 66.6231 5.90031 63.0848 6.58452 61.0999C7.35425 58.9424 8.8082 58.6835 8.8082 58.6835C8.8082 58.6835 9.06478 57.5616 9.32136 56.0945C5.81478 56.0945 0.170044 59.8054 0.170044 64.3793C0.0845174 68.9532 2.65031 69.9025 6.49899 69.9888L3.9332 79.568H9.74899L12.3148 69.9888C18.9003 69.9888 22.4069 64.9834 22.4069 60.9273C22.4069 56.8712 18.5582 56.0082 17.1898 56.0082H17.1043C10.4332 56.0082 8.97925 60.7547 8.97925 60.7547Z" fill="url(#paint25_linear_10086_108061)"/>
<path d="M125.125 3.2799C124.868 1.4676 124.099 0.345703 124.099 0.345703C124.099 0.345703 123.414 6.5593 116.658 12.9455C106.993 22.0933 96.9868 27.185 93.7368 34.8657C93.0526 36.4191 92.7105 38.1451 92.625 40.0437C92.625 45.049 96.046 49.7092 98.7829 52.6434C97.3289 50.6585 96.0461 47.7243 96.0461 43.6682C96.0461 39.8711 98.1842 36.3328 101.349 32.8808C106.138 27.7028 113.151 22.9563 118.711 18.555C125.809 12.8592 125.724 7.0771 125.125 3.2799Z" fill="url(#paint26_linear_10086_108061)"/>
<path d="M128.462 10.0117C129.146 13.2911 129.146 13.8089 129.317 16.3116C129.66 23.4745 128.975 27.7895 124.1 33.2264C121.192 36.5058 117.857 39.3537 114.778 42.7194L114.692 42.8057C112.725 44.9632 110.844 47.2933 109.133 50.0549C108.535 51.0042 108.021 51.9535 107.423 52.9891C106.738 54.2836 106.311 55.4055 105.969 56.3548C119.482 56.5274 129.488 49.1056 132.054 37.9729C132.311 36.6784 132.567 35.3839 132.738 34.0894C133.85 23.8197 130.344 14.413 128.462 10.0117Z" fill="url(#paint27_radial_10086_108061)"/>
<path d="M116.828 37.2817L112.295 35.3831L118.197 20.8848L101.177 36.2461L105.795 38.1447L99.8941 52.6431L99.8086 52.7294L116.828 37.2817Z" fill="url(#paint28_radial_10086_108061)"/>
<path d="M116.828 37.2817L112.295 35.3831L118.197 20.8848L101.177 36.2461L105.795 38.1447L99.8941 52.6431L99.8086 52.7294L116.828 37.2817Z" fill="url(#paint29_radial_10086_108061)"/>
<path d="M116.828 37.2817L112.295 35.3831L118.197 20.8848L101.177 36.2461L105.795 38.1447L99.8941 52.6431L99.8086 52.7294L116.828 37.2817Z" fill="url(#paint30_radial_10086_108061)"/>
<path d="M112.294 35.3831L118.196 20.8848L101.176 36.2461L105.794 38.1447L105.623 38.4899H105.709H105.794C105.965 38.4036 106.136 38.4036 106.222 38.3173C108.274 37.5406 110.327 36.6776 112.294 35.7284L112.38 35.642L112.465 35.4694L112.294 35.3831Z" fill="url(#paint31_linear_10086_108061)"/>
<path d="M118.711 18.5546C125.809 12.9451 125.638 7.07673 125.04 3.36584C124.783 1.55354 124.013 0.431641 124.013 0.431641C124.013 0.431641 123.329 6.64523 116.573 13.0314C106.908 22.1792 96.9015 27.2709 93.6515 34.9516C93.566 35.1242 93.566 35.2105 93.4805 35.3831H93.737C95.7897 35.0379 97.8423 34.5201 99.8094 33.8297C100.152 33.7434 100.494 33.6571 100.75 33.4845C100.921 33.3119 101.092 33.053 101.349 32.8804C106.138 27.7024 113.152 22.9559 118.711 18.5546Z" fill="url(#paint32_radial_10086_108061)"/>
<path d="M128.546 10.0977C129.23 13.2908 129.23 13.8949 129.315 16.3112C129.657 23.4741 128.973 27.7891 124.098 33.226C121.19 36.5054 117.855 39.3533 114.776 42.719L114.69 42.8053C112.723 44.9628 110.842 47.2929 109.131 50.0545C109.046 50.2271 108.875 50.3997 108.789 50.5723L109.217 50.486C109.644 50.3134 110.072 50.2271 110.414 50.1408C115.204 48.5874 119.651 46.4299 123.585 43.6683C127.177 41.0793 130.256 38.1451 132.651 34.8657C132.651 34.6068 132.736 34.3479 132.736 34.089C133.848 23.9056 130.342 14.5852 128.546 10.0977Z" fill="url(#paint33_radial_10086_108061)"/>
<path d="M112.294 35.3831L118.196 20.8848L101.176 36.2461L105.794 38.1447L105.623 38.4899H105.709H105.794C105.965 38.4036 106.136 38.4036 106.222 38.3173C108.274 37.5406 110.327 36.6776 112.294 35.7284L112.38 35.642L112.465 35.4694L112.294 35.3831Z" fill="url(#paint34_linear_10086_108061)"/>
</g>
<defs>
<linearGradient id="paint0_linear_10086_108061" x1="78.2547" y1="72.9238" x2="78.2547" y2="79.4827" gradientUnits="userSpaceOnUse">
<stop stop-color="#4DB268"/>
<stop offset="1" stop-color="#0CA250"/>
</linearGradient>
<linearGradient id="paint1_linear_10086_108061" x1="78.2547" y1="72.9238" x2="78.2547" y2="79.4827" gradientUnits="userSpaceOnUse">
<stop stop-color="#4DB268"/>
<stop offset="1" stop-color="#0CA250"/>
</linearGradient>
<linearGradient id="paint2_linear_10086_108061" x1="78.2547" y1="72.9238" x2="78.2547" y2="79.4827" gradientUnits="userSpaceOnUse">
<stop stop-color="#4DB268"/>
<stop offset="1" stop-color="#0CA250"/>
</linearGradient>
<linearGradient id="paint3_linear_10086_108061" x1="78.2547" y1="72.9238" x2="78.2547" y2="79.4827" gradientUnits="userSpaceOnUse">
<stop stop-color="#4DB268"/>
<stop offset="1" stop-color="#0CA250"/>
</linearGradient>
<linearGradient id="paint4_linear_10086_108061" x1="78.2547" y1="72.9238" x2="78.2547" y2="79.4827" gradientUnits="userSpaceOnUse">
<stop stop-color="#4DB268"/>
<stop offset="1" stop-color="#0CA250"/>
</linearGradient>
<linearGradient id="paint5_linear_10086_108061" x1="78.2547" y1="72.9238" x2="78.2547" y2="79.4827" gradientUnits="userSpaceOnUse">
<stop stop-color="#4DB268"/>
<stop offset="1" stop-color="#0CA250"/>
</linearGradient>
<linearGradient id="paint6_linear_10086_108061" x1="78.2547" y1="72.9238" x2="78.2547" y2="79.4827" gradientUnits="userSpaceOnUse">
<stop stop-color="#4DB268"/>
<stop offset="1" stop-color="#0CA250"/>
</linearGradient>
<linearGradient id="paint7_linear_10086_108061" x1="78.2547" y1="72.9238" x2="78.2547" y2="79.4827" gradientUnits="userSpaceOnUse">
<stop stop-color="#4DB268"/>
<stop offset="1" stop-color="#0CA250"/>
</linearGradient>
<linearGradient id="paint8_linear_10086_108061" x1="78.2547" y1="72.9238" x2="78.2547" y2="79.4827" gradientUnits="userSpaceOnUse">
<stop stop-color="#4DB268"/>
<stop offset="1" stop-color="#0CA250"/>
</linearGradient>
<linearGradient id="paint9_linear_10086_108061" x1="78.2547" y1="72.9238" x2="78.2547" y2="79.4827" gradientUnits="userSpaceOnUse">
<stop stop-color="#4DB268"/>
<stop offset="1" stop-color="#0CA250"/>
</linearGradient>
<linearGradient id="paint10_linear_10086_108061" x1="78.2547" y1="72.9238" x2="78.2547" y2="79.4827" gradientUnits="userSpaceOnUse">
<stop stop-color="#4DB268"/>
<stop offset="1" stop-color="#0CA250"/>
</linearGradient>
<linearGradient id="paint11_linear_10086_108061" x1="78.2547" y1="72.9238" x2="78.2547" y2="79.4827" gradientUnits="userSpaceOnUse">
<stop stop-color="#4DB268"/>
<stop offset="1" stop-color="#0CA250"/>
</linearGradient>
<linearGradient id="paint12_linear_10086_108061" x1="78.2547" y1="72.9238" x2="78.2547" y2="79.4827" gradientUnits="userSpaceOnUse">
<stop stop-color="#4DB268"/>
<stop offset="1" stop-color="#0CA250"/>
</linearGradient>
<linearGradient id="paint13_linear_10086_108061" x1="78.2547" y1="72.9238" x2="78.2547" y2="79.4827" gradientUnits="userSpaceOnUse">
<stop stop-color="#4DB268"/>
<stop offset="1" stop-color="#0CA250"/>
</linearGradient>
<linearGradient id="paint14_linear_10086_108061" x1="78.2547" y1="72.9238" x2="78.2547" y2="79.4827" gradientUnits="userSpaceOnUse">
<stop stop-color="#4DB268"/>
<stop offset="1" stop-color="#0CA250"/>
</linearGradient>
<linearGradient id="paint15_linear_10086_108061" x1="78.2547" y1="72.9238" x2="78.2547" y2="79.4827" gradientUnits="userSpaceOnUse">
<stop stop-color="#4DB268"/>
<stop offset="1" stop-color="#0CA250"/>
</linearGradient>
<linearGradient id="paint16_linear_10086_108061" x1="78.2547" y1="72.9238" x2="78.2547" y2="79.4827" gradientUnits="userSpaceOnUse">
<stop stop-color="#4DB268"/>
<stop offset="1" stop-color="#0CA250"/>
</linearGradient>
<linearGradient id="paint17_linear_10086_108061" x1="78.2547" y1="72.9238" x2="78.2547" y2="79.4827" gradientUnits="userSpaceOnUse">
<stop stop-color="#4DB268"/>
<stop offset="1" stop-color="#0CA250"/>
</linearGradient>
<linearGradient id="paint18_linear_10086_108061" x1="78.2547" y1="72.9238" x2="78.2547" y2="79.4827" gradientUnits="userSpaceOnUse">
<stop stop-color="#4DB268"/>
<stop offset="1" stop-color="#0CA250"/>
</linearGradient>
<linearGradient id="paint19_linear_10086_108061" x1="78.2547" y1="72.9238" x2="78.2547" y2="79.4827" gradientUnits="userSpaceOnUse">
<stop stop-color="#4DB268"/>
<stop offset="1" stop-color="#0CA250"/>
</linearGradient>
<linearGradient id="paint20_linear_10086_108061" x1="78.2547" y1="72.9238" x2="78.2547" y2="79.4827" gradientUnits="userSpaceOnUse">
<stop stop-color="#4DB268"/>
<stop offset="1" stop-color="#0CA250"/>
</linearGradient>
<linearGradient id="paint21_linear_10086_108061" x1="78.2547" y1="72.9238" x2="78.2547" y2="79.4827" gradientUnits="userSpaceOnUse">
<stop stop-color="#4DB268"/>
<stop offset="1" stop-color="#0CA250"/>
</linearGradient>
<linearGradient id="paint22_linear_10086_108061" x1="78.2547" y1="72.9238" x2="78.2547" y2="79.4827" gradientUnits="userSpaceOnUse">
<stop stop-color="#4DB268"/>
<stop offset="1" stop-color="#0CA250"/>
</linearGradient>
<linearGradient id="paint23_linear_10086_108061" x1="78.2547" y1="72.9238" x2="78.2547" y2="79.4827" gradientUnits="userSpaceOnUse">
<stop stop-color="#4DB268"/>
<stop offset="1" stop-color="#0CA250"/>
</linearGradient>
<linearGradient id="paint24_linear_10086_108061" x1="78.2547" y1="72.9238" x2="78.2547" y2="79.4827" gradientUnits="userSpaceOnUse">
<stop stop-color="#4DB268"/>
<stop offset="1" stop-color="#0CA250"/>
</linearGradient>
<linearGradient id="paint25_linear_10086_108061" x1="97.4124" y1="55.9219" x2="97.4124" y2="79.568" gradientUnits="userSpaceOnUse">
<stop stop-color="#0094D8"/>
<stop offset="1" stop-color="#0072BB"/>
</linearGradient>
<linearGradient id="paint26_linear_10086_108061" x1="95.7842" y1="52.2056" x2="122.431" y2="-5.15365" gradientUnits="userSpaceOnUse">
<stop stop-color="#0075BE"/>
<stop offset="0.3271" stop-color="#0081C9"/>
<stop offset="0.7" stop-color="#008AD1"/>
<stop offset="0.9996" stop-color="#0094DA"/>
</linearGradient>
<radialGradient id="paint27_radial_10086_108061" cx="0" cy="0" r="1" gradientUnits="userSpaceOnUse" gradientTransform="translate(120.376 43.4996) rotate(-43.4681) scale(19.8496 9.02134)">
<stop stop-color="#009C3D"/>
<stop offset="0.6032" stop-color="#0BA13A"/>
<stop offset="0.919" stop-color="#13A438"/>
</radialGradient>
<radialGradient id="paint28_radial_10086_108061" cx="0" cy="0" r="1" gradientUnits="userSpaceOnUse" gradientTransform="translate(110.567 32.6377) rotate(-59.1781) scale(25.1371 13.0077)">
<stop offset="0.010579" stop-color="#0094DA"/>
<stop offset="0.4" stop-color="#008AD1"/>
<stop offset="0.701" stop-color="#0075BE"/>
<stop offset="0.7169" stop-color="#0074BD"/>
<stop offset="0.9993" stop-color="#0069B3"/>
</radialGradient>
<radialGradient id="paint29_radial_10086_108061" cx="0" cy="0" r="1" gradientUnits="userSpaceOnUse" gradientTransform="translate(110.567 32.6377) rotate(-59.1781) scale(25.1371 13.0077)">
<stop offset="0.010579" stop-color="#0094DA"/>
<stop offset="0.4" stop-color="#008AD1"/>
<stop offset="0.701" stop-color="#0075BE"/>
<stop offset="0.7169" stop-color="#0074BD"/>
<stop offset="0.9993" stop-color="#0069B3"/>
</radialGradient>
<radialGradient id="paint30_radial_10086_108061" cx="0" cy="0" r="1" gradientUnits="userSpaceOnUse" gradientTransform="translate(110.567 32.6377) rotate(-59.1781) scale(25.1371 13.0077)">
<stop offset="0.010579" stop-color="#0094DA"/>
<stop offset="0.4" stop-color="#008AD1"/>
<stop offset="0.701" stop-color="#0075BE"/>
<stop offset="0.8353" stop-color="#006AB1"/>
<stop offset="0.9993" stop-color="#0061A6"/>
</radialGradient>
<linearGradient id="paint31_linear_10086_108061" x1="117.054" y1="21.0403" x2="105.85" y2="37.1399" gradientUnits="userSpaceOnUse">
<stop stop-color="#0075BE"/>
<stop offset="0.4" stop-color="#0075BE" stop-opacity="0.4"/>
<stop offset="0.4661" stop-color="#3491CB" stop-opacity="0.3559"/>
<stop offset="0.5433" stop-color="#69AED9" stop-opacity="0.3044"/>
<stop offset="0.6216" stop-color="#97C7E4" stop-opacity="0.2522"/>
<stop offset="0.6993" stop-color="#BCDBEE" stop-opacity="0.2003"/>
<stop offset="0.7764" stop-color="#DAEBF5" stop-opacity="0.149"/>
<stop offset="0.8525" stop-color="#EEF6FB" stop-opacity="0.0981548"/>
<stop offset="0.9274" stop-color="#FBFDFE" stop-opacity="0.0481838"/>
<stop offset="0.9996" stop-color="white" stop-opacity="0"/>
</linearGradient>
<radialGradient id="paint32_radial_10086_108061" cx="0" cy="0" r="1" gradientUnits="userSpaceOnUse" gradientTransform="translate(98.8001 6.71964) rotate(6.15614) scale(23.0605 15.1916)">
<stop offset="0.2" stop-color="#0069B3"/>
<stop offset="0.2744" stop-color="#0E72B7" stop-opacity="0.9349"/>
<stop offset="0.4162" stop-color="#3488C3" stop-opacity="0.8107"/>
<stop offset="0.6108" stop-color="#72ACD5" stop-opacity="0.6404"/>
<stop offset="0.8481" stop-color="#C6DDEE" stop-opacity="0.4327"/>
<stop offset="0.9996" stop-color="white" stop-opacity="0.3"/>
</radialGradient>
<radialGradient id="paint33_radial_10086_108061" cx="0" cy="0" r="1" gradientUnits="userSpaceOnUse" gradientTransform="translate(120.865 30.3181) rotate(45.204) scale(16.6145 28.5036)">
<stop stop-color="#13A438"/>
<stop offset="0.355" stop-color="#13A438" stop-opacity="0.79"/>
<stop offset="0.4334" stop-color="#39B358" stop-opacity="0.7183"/>
<stop offset="0.5883" stop-color="#7FCE93" stop-opacity="0.5766"/>
<stop offset="0.728" stop-color="#B6E3C1" stop-opacity="0.4488"/>
<stop offset="0.8475" stop-color="#DEF2E3" stop-opacity="0.3395"/>
<stop offset="0.942" stop-color="#F6FCF7" stop-opacity="0.253"/>
<stop offset="1" stop-color="white" stop-opacity="0.2"/>
</radialGradient>
<linearGradient id="paint34_linear_10086_108061" x1="107.956" y1="21.8075" x2="111.977" y2="37.1062" gradientUnits="userSpaceOnUse">
<stop stop-color="#0075BE"/>
<stop offset="0.9996" stop-color="white" stop-opacity="0.3"/>
</linearGradient>
<clipPath id="clip0_10086_108061">
<rect width="195" height="80" fill="white"/>
</clipPath>
</defs>
</svg>
